<svg width="58" height="64" viewBox="0 0 58 64" fill="none" xmlns="http://www.w3.org/2000/svg">
<g clip-path="url(#clip0_96_5022)">
<path d="M29.1989 64C28.3409 64 27.5401 63.7668 26.7965 63.3586L19.1892 58.7517C18.0453 58.1102 18.6172 57.877 18.9604 57.7603C20.5048 57.2355 20.7908 57.1189 22.3923 56.1859C22.5639 56.0692 22.7927 56.1275 22.9642 56.2442L28.7984 59.8014C29.0273 59.918 29.3132 59.918 29.4848 59.8014L52.3068 46.3307C52.5356 46.214 52.65 45.9808 52.65 45.6892V18.806C52.65 18.5145 52.5356 18.2812 52.3068 18.1646L29.4848 4.75223C29.256 4.63561 28.97 4.63561 28.7984 4.75223L5.9765 18.1646C5.74771 18.2812 5.63331 18.5728 5.63331 18.806V45.6892C5.63331 45.9224 5.74771 46.214 5.9765 46.3307L12.2111 50.0045C15.5858 51.7539 17.702 49.7129 17.702 47.6719V21.1386C17.702 20.7888 17.9881 20.4389 18.3884 20.4389H21.3056C21.6487 20.4389 21.9919 20.7305 21.9919 21.1386V47.6719C21.9919 52.2788 19.5324 54.9613 15.2425 54.9613C13.927 54.9613 12.8975 54.9613 9.98033 53.5034L3.97457 50.0045C2.48743 49.1297 1.57227 47.4969 1.57227 45.7475V18.8644C1.57227 17.115 2.48743 15.4822 3.97457 14.6074L26.7965 1.13672C28.2265 0.320313 30.1712 0.320313 31.6012 1.13672L54.4231 14.6074C55.9102 15.4822 56.8254 17.115 56.8254 18.8644V45.7475C56.8254 47.4969 55.9102 49.1297 54.4231 50.0045L31.6012 63.4752C30.9148 63.7668 30.0568 64 29.1989 64Z" fill="#5FA04E"/>
<path d="M36.2914 45.5143C26.2817 45.5143 24.2227 40.8491 24.2227 36.8837C24.2227 36.5339 24.5086 36.184 24.909 36.184H27.8833C28.2265 36.184 28.5125 36.4172 28.5125 36.7671C28.97 39.8577 30.2856 41.374 36.3486 41.374C41.1532 41.374 43.2123 40.266 43.2123 37.6418C43.2123 36.1256 42.6403 35.0176 35.1474 34.2595C28.9128 33.6181 25.0234 32.2186 25.0234 27.1451C25.0234 22.4216 28.9128 19.6226 35.4334 19.6226C42.7547 19.6226 46.3582 22.1884 46.8158 27.7866C46.8158 27.9616 46.7586 28.1365 46.6442 28.3115C46.5298 28.4281 46.3582 28.5447 46.1866 28.5447H43.1551C42.8691 28.5447 42.5831 28.3115 42.5259 28.0198C41.8396 24.8126 40.0664 23.7629 35.3762 23.7629C30.114 23.7629 29.4848 25.629 29.4848 27.0285C29.4848 28.7196 30.2284 29.2445 37.3209 30.1775C44.3563 31.1106 47.6737 32.4518 47.6737 37.4669C47.6737 42.5986 43.4983 45.5143 36.2914 45.5143Z" fill="#5FA04E"/>
</g>
<defs>
<clipPath id="clip0_96_5022">
<rect width="56.32" height="64" fill="white" transform="translate(0.939453)"/>
</clipPath>
</defs>
</svg>
