<svg width="71" height="64" viewBox="0 0 71 64" fill="none" xmlns="http://www.w3.org/2000/svg">
<g clip-path="url(#clip0_96_5004)">
<path d="M35.7997 38.7725C39.4721 38.7725 42.4491 35.7404 42.4491 32C42.4491 28.2597 39.4721 25.2275 35.7997 25.2275C32.1274 25.2275 29.1504 28.2597 29.1504 32C29.1504 35.7404 32.1274 38.7725 35.7997 38.7725Z" fill="#087EA4"/>
<path d="M35.7995 47.2379C54.1612 47.2379 69.0462 40.4156 69.0462 31.9998C69.0462 23.584 54.1612 16.7617 35.7995 16.7617C17.4378 16.7617 2.55273 23.584 2.55273 31.9998C2.55273 40.4156 17.4378 47.2379 35.7995 47.2379Z" stroke="#087EA4" stroke-width="3"/>
<path d="M22.8429 39.619C32.0237 55.8152 45.2672 65.5336 52.4229 61.3257C59.5787 57.1178 57.937 40.5771 48.7562 24.3809C39.5754 8.18475 26.3319 -1.53366 19.1762 2.67422C12.0204 6.88211 13.6621 23.4228 22.8429 39.619Z" stroke="#087EA4" stroke-width="3"/>
<path d="M22.8432 24.3811C13.6624 40.5772 12.0207 57.118 19.1765 61.3259C26.3322 65.5337 39.5757 55.8153 48.7565 39.6192C57.9373 23.423 59.579 6.88229 52.4232 2.67441C45.2675 -1.53348 32.0241 8.18494 22.8432 24.3811Z" stroke="#087EA4" stroke-width="3"/>
</g>
<defs>
<clipPath id="clip0_96_5004">
<rect width="69.8182" height="64" fill="white" transform="translate(0.890625)"/>
</clipPath>
</defs>
</svg>
