<svg width="65" height="64" viewBox="0 0 65 64" fill="none" xmlns="http://www.w3.org/2000/svg">
<path d="M53.9475 34.6079C51.8968 34.6186 50.1208 35.1106 48.6328 35.8452C48.0888 34.7586 47.5368 33.8026 47.4448 33.0919C47.3368 32.2626 47.2115 31.7666 47.3422 30.7786C47.4728 29.7906 48.0448 28.3906 48.0368 28.2852C48.0288 28.1799 47.9088 27.6772 46.7262 27.6679C45.5435 27.6599 44.5315 27.8959 44.4128 28.2079C44.2942 28.5199 44.0662 29.2226 43.9248 29.9559C43.7182 31.0279 41.5635 34.8532 40.3408 36.8532C39.9408 36.0719 39.6008 35.3839 39.5302 34.8399C39.4222 34.0106 39.2968 33.5146 39.4275 32.5266C39.5582 31.5386 40.1302 30.1386 40.1222 30.0332C40.1142 29.9279 39.9942 29.4252 38.8115 29.4159C37.6288 29.4079 36.6168 29.6439 36.4982 29.9559C36.3795 30.2679 36.2515 30.9972 36.0102 31.7039C35.7675 32.4092 32.9048 38.7892 32.1542 40.4439C31.7715 41.2866 31.4395 41.9639 31.2048 42.4252L31.2035 42.4226C31.2035 42.4226 31.1888 42.4532 31.1648 42.5052C30.9635 42.8986 30.8448 43.1159 30.8448 43.1159C30.8448 43.1159 30.8462 43.1186 30.8488 43.1239C30.6888 43.4132 30.5182 43.6812 30.4342 43.6812C30.3755 43.6812 30.2568 42.9119 30.4595 41.8559C30.8862 39.6426 31.9088 36.1919 31.8995 36.0719C31.8942 36.0106 32.0902 35.4092 31.2315 35.0946C30.3968 34.7892 30.0995 35.2986 30.0235 35.2999C29.9502 35.3012 29.8955 35.4799 29.8955 35.4799C29.8955 35.4799 30.8248 31.5986 28.1222 31.5986C26.4315 31.5986 24.0902 33.4479 22.9368 35.1239C22.2088 35.5212 20.6502 36.3719 18.9982 37.2799C18.3635 37.6292 17.7155 37.9852 17.1008 38.3239C17.0595 38.2772 17.0168 38.2319 16.9742 38.1852C13.6955 34.6879 7.63685 32.2146 7.89285 27.5119C7.98618 25.8026 8.58085 21.3012 19.5368 15.8426C28.5115 11.3706 35.6968 12.6012 36.9382 15.3279C38.7115 19.2252 33.0982 26.4666 23.7782 27.5119C20.2275 27.9106 18.3568 26.5332 17.8915 26.0212C17.4022 25.4812 17.3288 25.4572 17.1462 25.5586C16.8488 25.7239 17.0368 26.1999 17.1462 26.4839C17.4248 27.2079 18.5662 28.4919 20.5128 29.1319C22.2262 29.6946 26.3955 30.0026 31.4368 28.0519C37.0848 25.8679 41.4942 19.7906 40.1982 14.7119C38.8808 9.54658 30.3155 7.84791 22.2088 10.7279C17.3782 12.4426 12.1555 15.1332 8.39952 18.6452C3.93418 22.8212 3.22218 26.4572 3.51552 27.9759C4.55818 33.3732 11.9968 36.8879 14.9755 39.4919C14.8288 39.5732 14.6902 39.6492 14.5648 39.7186C13.0715 40.4572 7.40085 43.4252 5.98218 46.5599C4.37285 50.1159 6.23818 52.6679 7.47285 53.0119C11.2982 54.0759 15.2235 52.1612 17.3342 49.0146C19.4435 45.8692 19.1862 41.7719 18.2182 39.9026C18.2062 39.8799 18.1928 39.8572 18.1808 39.8332C18.5662 39.6052 18.9595 39.3732 19.3488 39.1439C20.1088 38.6972 20.8555 38.2812 21.5022 37.9292C21.1395 38.9212 20.8742 40.1119 20.7368 41.8306C20.5742 43.8492 21.4022 46.4586 22.4848 47.4852C22.9622 47.9372 23.5355 47.9479 23.8982 47.9479C25.1582 47.9479 25.7328 46.8999 26.3662 45.6599C27.1422 44.1399 27.8315 42.3692 27.8315 42.3692C27.8315 42.3692 26.9675 47.1506 29.3222 47.1506C30.1808 47.1506 31.0435 46.0372 31.4288 45.4706C31.4302 45.4772 31.4302 45.4799 31.4302 45.4799C31.4302 45.4799 31.4528 45.4426 31.4968 45.3692C31.5862 45.2332 31.6368 45.1466 31.6368 45.1466C31.6368 45.1466 31.6382 45.1372 31.6408 45.1212C31.9862 44.5226 32.7515 43.1572 33.8982 40.9052C35.3808 37.9959 36.8022 34.3506 36.8022 34.3506C36.8022 34.3506 36.9342 35.2412 37.3675 36.7159C37.6222 37.5826 38.1635 38.5412 38.5915 39.4612C38.2475 39.9386 38.0368 40.2119 38.0368 40.2119C38.0368 40.2119 38.0382 40.2172 38.0422 40.2266C37.7675 40.5919 37.4595 40.9852 37.1368 41.3692C35.9662 42.7626 34.5728 44.3546 34.3862 44.8132C34.1662 45.3546 34.2182 45.7519 34.6435 46.0732C34.9542 46.3066 35.5062 46.3439 36.0835 46.3052C37.1355 46.2346 37.8742 45.9732 38.2395 45.8146C38.8088 45.6132 39.4715 45.2972 40.0928 44.8399C41.2408 43.9959 41.9328 42.7892 41.8662 41.1892C41.8288 40.3079 41.5488 39.4346 41.1928 38.6106C41.2968 38.4612 41.4008 38.3092 41.5062 38.1572C43.3155 35.5119 44.7195 32.6052 44.7195 32.6052C44.7195 32.6052 44.8515 33.4959 45.2848 34.9706C45.5035 35.7159 45.9368 36.5306 46.3262 37.3279C44.6248 38.7106 43.5702 40.3172 43.2035 41.3706C42.5262 43.3199 43.0568 44.2026 44.0515 44.4039C44.5022 44.4946 45.1395 44.2879 45.6182 44.0852C46.2142 43.8879 46.9302 43.5586 47.5995 43.0666C48.7475 42.2226 49.8515 41.0412 49.7848 39.4426C49.7542 38.7146 49.5568 37.9919 49.2888 37.2986C50.7315 36.6972 52.5982 36.3639 54.9768 36.6412C60.0795 37.2372 61.0795 40.4226 60.8888 41.7559C60.6968 43.0892 59.6275 43.8226 59.2688 44.0439C58.9115 44.2652 58.8022 44.3426 58.8315 44.5066C58.8755 44.7452 59.0408 44.7372 59.3462 44.6852C59.7662 44.6146 62.0248 43.6012 62.1222 41.1399C62.2435 38.0119 59.2502 34.5799 53.9475 34.6079ZM14.6182 47.8666C12.9275 49.7106 10.5675 50.4066 9.55418 49.8199C8.46085 49.1866 8.89418 46.4719 10.9675 44.5146C12.2315 43.3226 13.8635 42.2239 14.9462 41.5479C15.1928 41.3999 15.5542 41.1826 15.9942 40.9186C16.0675 40.8772 16.1088 40.8546 16.1088 40.8546L16.1075 40.8519C16.1929 40.8012 16.2795 40.7492 16.3688 40.6946C17.1248 43.4799 16.3928 45.9319 14.6182 47.8666ZM26.9315 39.4972C26.3435 40.9319 25.1115 44.6039 24.3608 44.4066C23.7168 44.2372 23.3248 41.4466 24.2328 38.6999C24.6888 37.3172 25.6648 35.6652 26.2382 35.0239C27.1608 33.9919 28.1768 33.6546 28.4235 34.0732C28.7368 34.6066 27.3008 38.5972 26.9315 39.4972ZM37.1035 44.3506C36.8542 44.4812 36.6248 44.5626 36.5195 44.4999C36.4408 44.4532 36.6222 44.2812 36.6222 44.2812C36.6222 44.2812 37.8942 42.9119 38.3955 42.2892C38.6875 41.9266 39.0248 41.4959 39.3928 41.0159C39.3955 41.0639 39.3968 41.1119 39.3968 41.1586C39.3942 42.7986 37.8102 43.9052 37.1035 44.3506ZM44.9395 42.5639C44.7528 42.4319 44.7848 42.0039 45.3968 40.6692C45.6368 40.1452 46.1862 39.2639 47.1382 38.4212C47.2488 38.7679 47.3155 39.0999 47.3142 39.4092C47.3022 41.4732 45.8302 42.2439 44.9395 42.5639Z" fill="#F06292"/>
</svg>
