<svg width="65" height="64" viewBox="0 0 65 64" fill="none" xmlns="http://www.w3.org/2000/svg">
<g clip-path="url(#clip0_96_4999)">
<path d="M61.4453 0H3.44531C1.78846 0 0.445312 1.34315 0.445312 3V61C0.445312 62.6569 1.78846 64 3.44531 64H61.4453C63.1022 64 64.4453 62.6569 64.4453 61V3C64.4453 1.34315 63.1022 0 61.4453 0Z" fill="#3178C6"/>
<path fill-rule="evenodd" clip-rule="evenodd" d="M37.5764 49.734V56.747C38.7126 57.331 40.0563 57.7695 41.6077 58.0615C43.159 58.354 44.7941 58.5 46.5129 58.5C48.1881 58.5 49.7794 58.3395 51.2868 58.018C52.7948 57.6965 54.1163 57.167 55.2528 56.429C56.3888 55.691 57.2883 54.727 57.9513 53.536C58.6138 52.3455 58.9453 50.8735 58.9453 49.1203C58.9453 47.8493 58.7558 46.7353 58.3773 45.7783C57.9983 44.8214 57.4523 43.9704 56.7383 43.2252C56.0248 42.4801 55.1688 41.8117 54.1713 41.22C53.1733 40.6283 52.0483 40.0694 50.7953 39.5435C49.8777 39.1636 49.0547 38.7947 48.3264 38.4368C47.5981 38.0788 46.979 37.7136 46.4692 37.341C45.9594 36.9684 45.5661 36.574 45.2893 36.1576C45.0126 35.7413 44.8742 35.27 44.8742 34.7441C44.8742 34.2619 44.998 33.8273 45.2456 33.4402C45.4933 33.053 45.8429 32.7206 46.2944 32.443C46.746 32.1655 47.2995 31.95 47.955 31.7966C48.6105 31.6431 49.3388 31.5664 50.1399 31.5664C50.7228 31.5664 51.3378 31.6103 51.9863 31.6979C52.6343 31.7856 53.2863 31.9207 53.9418 32.1034C54.5973 32.286 55.2343 32.5161 55.8538 32.7937C56.4728 33.0713 57.0443 33.3927 57.5688 33.7579V27.2054C56.5053 26.7963 55.3438 26.4931 54.0838 26.2959C52.8238 26.0986 51.3783 26 49.7466 26C48.0861 26 46.5129 26.1789 45.0271 26.5369C43.5414 26.8948 42.234 27.4537 41.1051 28.2134C39.9762 28.9731 39.084 29.941 38.4286 31.1171C37.7731 32.2932 37.4453 33.6995 37.4453 35.3358C37.4453 37.4251 38.0462 39.2074 39.2479 40.683C40.4497 42.1587 42.2741 43.4079 44.7212 44.4305C45.6826 44.825 46.5785 45.2122 47.4087 45.592C48.239 45.9719 48.9564 46.3664 49.5609 46.7755C50.1654 47.1846 50.6423 47.6302 50.9918 48.1123C51.3418 48.5944 51.5163 49.1423 51.5163 49.7559C51.5163 50.209 51.4073 50.629 51.1888 51.016C50.9703 51.403 50.6388 51.739 50.1946 52.024C49.7503 52.309 49.1968 52.532 48.534 52.6925C47.8712 52.853 47.0956 52.9335 46.207 52.9335C44.6921 52.9335 43.1918 52.667 41.706 52.1335C40.2202 51.6005 38.8437 50.8005 37.5764 49.734ZM25.7966 32.2772H34.9453V26.5H9.44531V32.2772H18.5493V58H25.7966V32.2772Z" fill="white"/>
</g>
<defs>
<clipPath id="clip0_96_4999">
<rect width="64" height="64" fill="white" transform="translate(0.445312)"/>
</clipPath>
</defs>
</svg>
